<?xml version="1.0" encoding="UTF-8" standalone="no"?>
<!DOCTYPE svg PUBLIC "-//W3C//DTD SVG 1.1//EN" "http://www.w3.org/Graphics/SVG/1.1/DTD/svg11.dtd">
<svg width="100%" height="100%" viewBox="0 0 41 36" version="1.1" xmlns="http://www.w3.org/2000/svg" xmlns:xlink="http://www.w3.org/1999/xlink" xml:space="preserve" xmlns:serif="http://www.serif.com/" style="fill-rule:evenodd;clip-rule:evenodd;stroke-linejoin:round;stroke-miterlimit:2;">
    <g transform="matrix(1,0,0,1,-203.395,-265.855)">
        <g transform="matrix(1,0,0,1,242.185,279.401)">
            <path d="M0,8.4C-1.445,7.745 -4.568,7.892 -11.277,12.012C-11.298,11.878 -11.366,11.824 -11.366,11.824C-11.366,11.824 -11.438,11.537 -12.052,11.567C-6.731,5.904 -3.881,4.936 -2.412,5.168C-1.477,5.314 -1.18,5.958 -1.167,5.985C-1.114,6.101 -0.979,6.154 -0.864,6.103C-0.748,6.052 -0.694,5.919 -0.745,5.801C-0.76,5.765 -1.14,4.909 -2.321,4.715C-3.938,4.449 -7.065,5.488 -12.813,11.715C-12.981,11.764 -13.167,11.828 -13.375,11.908C-8.37,1.484 -5.079,-6.33 -6.067,-10.613C-6.064,-10.611 -6.06,-10.61 -6.057,-10.608C-6.116,-10.866 -6.193,-11.109 -6.283,-11.341C-6.316,-11.427 -6.359,-11.505 -6.397,-11.587C-6.483,-11.776 -6.58,-11.954 -6.689,-12.124C-6.737,-12.198 -6.785,-12.272 -6.837,-12.342C-7.002,-12.565 -7.183,-12.776 -7.396,-12.961C-7.998,-13.488 -8.87,-13.636 -9.912,-13.497C-13.037,-13.079 -17.692,-10.069 -21.199,-6.866C-22.369,-5.798 -23.41,-4.709 -24.225,-3.688C-25.202,-2.463 -25.853,-1.334 -26.006,-0.457C-26.032,-0.311 -26.043,-0.172 -26.04,-0.04C-26.035,0.198 -25.999,0.449 -25.948,0.705C-25.933,0.783 -25.912,0.863 -25.892,0.943C-25.847,1.129 -25.793,1.319 -25.728,1.512C-25.699,1.599 -25.67,1.686 -25.638,1.774C-25.554,1.999 -25.459,2.226 -25.354,2.457C-25.331,2.507 -25.312,2.556 -25.289,2.607C-25.158,2.883 -25.011,3.164 -24.855,3.446C-24.802,3.544 -24.744,3.641 -24.687,3.739C-24.577,3.932 -24.462,4.125 -24.342,4.319C-24.273,4.431 -24.204,4.543 -24.132,4.655C-24.009,4.848 -23.882,5.04 -23.752,5.232C-23.686,5.331 -23.623,5.428 -23.556,5.526C-23.549,5.535 -23.543,5.545 -23.537,5.554L-23.537,5.552C-21.358,8.711 -18.592,11.638 -18.895,12.122C-19.295,12.758 -24.229,6.202 -27.205,4.112C-27.206,4.111 -27.208,4.11 -27.208,4.109C-27.36,4.004 -27.504,3.913 -27.645,3.831C-27.67,3.816 -27.697,3.8 -27.723,3.786C-27.864,3.708 -28.001,3.639 -28.129,3.59C-28.132,3.589 -28.134,3.589 -28.136,3.588C-28.257,3.544 -28.368,3.517 -28.475,3.501C-28.501,3.497 -28.528,3.494 -28.554,3.492C-28.66,3.484 -28.76,3.486 -28.85,3.513C-29.253,3.634 -29.542,3.904 -29.758,4.26C-29.901,4.499 -30.013,4.776 -30.104,5.075C-30.15,5.224 -30.19,5.379 -30.228,5.538C-30.527,6.801 -30.608,8.271 -31.273,8.824C-31.44,8.962 -31.643,9.043 -31.895,9.048C-33.911,9.095 -37.609,5.651 -38.659,7.602C-39.709,9.554 -34.197,8.532 -31.887,10.463C-29.576,12.396 -33.282,13.832 -31.539,15.52C-31.411,15.643 -31.25,15.751 -31.072,15.849C-31.017,15.88 -30.954,15.908 -30.894,15.937C-30.759,16.002 -30.617,16.062 -30.463,16.116C-30.39,16.142 -30.316,16.168 -30.239,16.192C-30.066,16.246 -29.883,16.294 -29.693,16.337C-29.631,16.351 -29.574,16.368 -29.51,16.381C-29.257,16.435 -28.993,16.482 -28.72,16.523C-28.637,16.536 -28.552,16.546 -28.468,16.557C-28.268,16.585 -28.067,16.611 -27.862,16.633C-27.746,16.647 -27.631,16.66 -27.515,16.671C-27.334,16.689 -27.155,16.707 -26.975,16.723C-26.305,16.785 -25.647,16.837 -25.051,16.898C-23.768,17.029 -22.779,17.211 -22.648,17.662C-22.637,17.699 -22.597,17.712 -22.572,17.737C-24.652,19.357 -25.943,20.598 -26.661,21.363C-26.918,21.636 -26.659,22.036 -26.304,21.912C-24.687,21.349 -21.307,19.926 -16.106,16.55C-13.054,14.569 -11.896,13.379 -11.483,12.685C-4.665,8.418 -1.584,8.2 -0.205,8.813C0.66,9.198 0.779,9.897 0.784,9.926C0.806,10.052 0.922,10.138 1.046,10.12C1.172,10.1 1.258,9.985 1.24,9.859C1.235,9.821 1.091,8.894 0,8.4" />
        </g>
    </g>
</svg>
