<?xml version="1.0" encoding="UTF-8" standalone="no"?>
<!-- Created with Inkscape (http://www.inkscape.org/) -->

<svg
   xmlns:dc="http://purl.org/dc/elements/1.1/"
   xmlns:cc="http://creativecommons.org/ns#"
   xmlns:rdf="http://www.w3.org/1999/02/22-rdf-syntax-ns#"
   xmlns:svg="http://www.w3.org/2000/svg"
   xmlns="http://www.w3.org/2000/svg"
   xmlns:sodipodi="http://sodipodi.sourceforge.net/DTD/sodipodi-0.dtd"
   xmlns:inkscape="http://www.inkscape.org/namespaces/inkscape"
   id="svg4836"
   version="1.1"
   inkscape:version="0.91 r13725"
   width="1800"
   height="1237.5"
   viewBox="0 0 1800 1237.5"
   sodipodi:docname="butterfly.svg">

  <defs
     id="defs4840" />
 
  <path
     d="m 548.90625,1236.109 c -8.36906,-2.2632 -14.807,-5.0311 -25.3125,-10.8827 -27.35478,-15.2369 -34.29277,-17.5237 -47.80252,-15.7562 -12.9419,1.6932 -12.67632,1.812 -34.56096,-15.4549 -7.44892,-5.8772 -12.51721,-7.7113 -24.74952,-8.9565 -12.09895,-1.2316 -15.80542,-3.4459 -30.6995,-18.3399 -12.74497,-12.745 -17.9174,-16.2525 -30.94133,-20.9812 -23.71456,-8.6105 -49.16756,-41.6417 -53.11245,-68.926 l -1.13347,-7.8395 -4.7974,-2.3528 c -26.28888,-12.8933 -41.11173,-58.233 -28.58901,-87.44743 l 1.70109,-3.96843 -2.81924,-2.67985 c -6.77193,-6.43715 -9.4647,-14.31853 -11.59629,-33.94087 -2.09712,-19.30503 -4.26776,-27.45481 -8.58218,-32.22219 -1.40927,-1.55723 -1.27732,-2.19436 1.85167,-8.9405 6.9375,-14.95729 8.80416,-26.72722 10.07299,-63.51378 1.66453,-48.25863 5.31638,-63.69567 18.28434,-77.29123 l 5.23489,-5.48823 -6.8493,-4.51952 C 238.52033,722.86239 214.0373,672.24487 216.89179,627.49348 l 0.54857,-8.60027 -4.06414,-2.38173 c -14.87425,-8.71691 -20.11823,-21.02677 -27.29749,-64.07897 -6.3231,-37.918 -7.80485,-42.37429 -25.79872,-77.58876 -16.99005,-33.24995 -17.02589,-33.36288 -17.70237,-55.78125 l -0.55163,-18.28125 -3.12447,-6.22964 C 135.14088,387.05351 127.62511,377.57103 113.00222,361.875 23.009717,265.27817 -27.718323,106.47404 17.052197,61.503463 l 7.369854,-7.402788 33.02335,0.568936 C 237.70832,57.775231 382.38502,113.6075 565.3125,250.6609 682.99497,338.83128 793.25298,449.05432 883.59375,568.84121 l 9.375,12.43074 0.845,-2.84526 c 1.64783,-5.5486 -0.51967,-9.36331 -10.60214,-18.65933 -16.24188,-14.97499 -16.17786,-24.09748 0.26372,-37.57986 7.51017,-6.15847 7.57931,-3.89798 -0.83039,-27.14816 C 842.58053,384.27373 758.18041,257.32579 697.96875,217.26409 687.8537,210.53407 684.68362,209.10052 671.5144,205.3011 649.25892,198.88023 637.5,188.33189 637.5,174.78848 c 0,-10.16234 33.78076,3.99349 60.46875,25.33944 78.09134,62.46006 147.97291,167.17869 202.71948,303.77833 1.03326,2.57812 2.32342,4.59282 2.86702,4.47711 0.54361,-0.11572 5.00241,-0.49256 9.90845,-0.83742 8.48976,-0.59677 8.96605,-0.74492 9.87314,-3.07085 74.94063,-192.16037 147.66536,-301.44713 230.80566,-346.84231 10.875,-5.93783 13.045,-5.22072 13.045,4.31082 0,13.00943 -7.6759,20.11189 -33.0801,30.60902 -32.7335,13.52561 -65.9447,53.04852 -116.6791,138.85363 -35.11242,59.38435 -75.78099,151.48045 -78.70252,178.22606 l -0.52312,4.78857 7.48293,5.35744 c 15.93029,11.40537 16.71169,23.38211 2.48335,38.06194 -11.8118,12.18654 -13.97964,23.57482 -2.89285,15.1966 6.13979,-4.63979 11.23229,-11.62662 20.29782,-27.84861 C 999.19969,485.01805 1105.7719,356.09567 1181.7905,283.62709 1379.1061,95.525953 1562.022,5.561782 1757.8413,0.3059629 l 22.06,-0.5920942 4.0179,4.5645727 c 21.2043,24.0894146 21.8553,88.5410276 1.5144,149.9403086 -15.4456,46.62263 -37.7357,88.6906 -87.0907,164.36548 l -18.5132,28.38597 1.1251,9.9012 c 2.2198,19.53195 -1.0567,33.06563 -15.1381,62.52958 -14.1794,29.66886 -18.3974,45.44661 -20.4612,76.53652 -3.2033,48.25834 -6.2572,58.09202 -21.874,70.43637 l -4.6673,3.68933 -0.2172,20.82778 c -0.5461,52.37403 -17.2792,90.03268 -49.412,111.20389 l -6.2625,4.12611 3.5376,2.56264 c 11.6894,8.46776 16.9711,22.39816 18.8261,49.65388 3.0856,45.33728 3.2281,46.2865 8.8613,58.99316 1.7313,3.90533 4.905,11.07837 7.0525,15.94009 7.5029,16.98518 7.7781,21.49009 2.0942,34.2855 -3.6754,8.27396 -3.7864,9.6692 -2.9101,36.5625 0.4437,13.61581 -0.9838,17.98142 -7.4309,22.72615 l -2.855,2.10116 1.8567,4.19741 c 13.8569,31.32591 1.1091,79.33983 -24.539,92.42433 -4.1445,2.1145 -4.991,4.9434 -6.4547,21.571 -1.5339,17.4266 -3.9103,22.7209 -17.861,39.7925 -14.4734,17.7113 -20.6841,22.4927 -30.3989,23.403 -9.5926,0.899 -12.1942,3.0334 -26.9191,22.0858 -10.8612,14.0531 -14.2575,16.231 -29.7248,19.0608 -10.0145,1.8323 -15.3273,4.5152 -26.3699,13.3163 -12.9817,10.3465 -15.8323,11.6016 -28.7388,12.6536 -15.2796,1.2454 -19.427,2.9736 -48.9127,20.3823 -19.2453,11.3626 -23.9713,12.8448 -37.661,11.8109 -21.8873,-1.6529 -34.3414,-1.0141 -55.3125,2.8371 -39.2971,7.2166 -43.3297,6.801 -63.738,-6.5708 -11.71,-7.6725 -16.7277,-9.4512 -30.1463,-10.6867 -40.6084,-3.7391 -83.4861,-62.3855 -153.9712,-210.59591 -22.25006,-46.78566 -35.48766,-78.82707 -48.87609,-118.30453 l -5.82329,-17.17059 -0.64265,4.51434 c -0.35344,2.48289 -1.014,30.67059 -1.46785,62.63934 -0.45384,31.96875 -1.04315,59.17969 -1.30959,60.46875 -0.26644,1.28906 -0.95681,5.71875 -1.53412,9.84375 -2.48475,17.75275 -9.54769,36.71595 -17.2054,46.19425 l -3.23712,4.0067 -2.92563,-3.5379 c -19.0036,-22.9813 -25.62244,-60.7758 -28.75029,-164.16804 l -0.63355,-20.94249 -14.75042,44.37999 c -34.55512,103.96693 -63.02052,170.02304 -104.80393,243.20554 -32.76213,57.3819 -44.87969,70.419 -69.26834,74.5247 -13.57588,2.2854 -18.49366,4.4896 -31.23967,14.0017 -17.82086,13.2993 -26.76393,14.7791 -59.52052,9.8487 -23.88998,-3.5959 -32.51249,-3.5388 -42.48562,0.2811 -8.81697,3.3772 -19.06631,3.965 -27.82667,1.596 z m 82.32726,-18.4137 c 5.73158,-2.9519 8.91154,-9.2425 7.6275,-15.0888 l -0.62852,-2.8616 -6.81953,0.5157 c -15.47261,1.1702 -20.7954,9.6861 -9.66989,15.4708 6.52939,3.3949 6.65965,3.4219 9.49044,1.9639 z m 35.88808,-10.5755 c 1.49719,-0.7247 7.10052,-1.9962 12.45185,-2.8256 11.30635,-1.7523 15.60099,-3.516 17.49911,-7.1866 2.50396,-4.8421 2.31181,-4.9246 -10.11943,-4.3444 -20.08604,0.9373 -28.45035,5.7465 -24.10764,13.8609 1.15776,2.1633 0.89418,2.1328 4.27611,0.4957 z m -82.35597,-1.1482 c 1.95738,-0.5245 2.10938,-1.0887 2.10938,-7.8294 l 0,-7.2643 -10.31418,-1.6594 c -11.40349,-1.8347 -17.95068,-0.7085 -19.22512,3.3069 -2.36087,7.4384 16.09277,16.4844 27.42992,13.4462 z m 666.46878,-9.6543 c 5.0112,-3.0557 9.3631,-10.1916 7.2149,-11.8308 -5.2789,-4.0278 -19.8562,-6.6664 -23.6276,-4.2767 -1.5895,1.007 -0.8084,4.987 2.4556,12.513 l 2.3428,5.4022 4.3306,0 c 2.6156,0 5.5,-0.7166 7.2837,-1.8042 z M 517.5,1191.0637 c 0,-10.2289 -10.2616,-17.3137 -25.07708,-17.3137 -7.8312,0 -8.00558,0.3853 -3.44502,7.6123 6.19804,9.8218 28.5221,17.415 28.5221,9.7014 z m 695.3089,-5.7686 c -3.4994,-6.7671 -9.0464,-8.7326 -24.6455,-8.7326 -12.6279,0 -13.3339,0.3565 -9.7434,4.921 2.7577,3.5059 8.4479,5.3599 19.6647,6.4073 5.5209,0.5154 11.269,1.272 12.7735,1.6811 3.3183,0.9024 3.9325,-0.4443 1.9507,-4.2768 z m -551.63703,-1.2587 c 5.50448,-2.5886 2.04386,-23.6195 -3.98063,-24.1911 -15.98925,-1.5171 -34.50332,13.0547 -25.66554,20.2004 6.49266,5.2496 22.41243,7.3926 29.64617,3.9907 z m 644.16563,-2.9983 c 8.3498,-2.5016 14.3682,-12.5289 9.1177,-15.1908 -12.4232,-6.2981 -33.3659,2.9369 -29.5009,13.0088 1.1384,2.9668 13.3873,4.278 20.3832,2.182 z M 608.66012,1170.174 c -1.46485,-18.4928 -34.31139,-29.6199 -47.05555,-15.9407 -2.65611,2.851 -2.5878,2.9953 3.47356,7.3391 11.76315,8.4299 23.2695,12.1947 36.32812,11.8861 l 7.5,-0.1773 -0.24613,-3.1072 z m 109.95018,-1.1939 c 44.50492,-8.2272 90.2183,-119.5257 96.23047,-234.29283 1.66881,-31.85597 0.80975,-32.75236 -11.00593,-11.48415 -4.51172,8.1211 -19.0375,32.90625 -32.27951,55.07813 -13.24202,22.17185 -26.73358,44.95315 -29.98126,50.62495 -3.24767,5.6719 -10.43708,17.923 -15.97644,27.2247 -28.63872,48.0898 -41.49918,99.5453 -27.73483,110.9687 2.82094,2.3412 13.17764,3.2799 20.7475,1.8805 z m -267.43843,-2.4361 c 3.90346,-2.2463 -1.25605,-16.0404 -7.33145,-19.6009 -14.27997,-8.3686 -32.89644,3.4707 -20.27457,12.8937 9.58698,7.1574 21.70679,10.102 27.60602,6.7072 z m 783.54123,-3.2665 c 10.0579,-4.8512 10.6261,-5.3847 9.3451,-8.7741 -5.861,-15.5072 -35.1601,-16.8865 -37.1898,-1.7508 -1.8138,13.526 11.3255,18.4925 27.8447,10.5249 z m 133.6056,0.5855 c 13.0774,-3.3922 23.2952,-19.201 12.3844,-19.1609 -14.4043,0.053 -23.3173,5.9048 -24.7338,16.2387 l -0.5991,4.3717 3.6804,0 c 2.0243,0 6.1948,-0.6522 9.2681,-1.4495 z m -836.38504,-5.3628 c 9.45293,-5.4194 9.56678,-17.1434 0.20775,-21.3936 -15.38742,-6.9877 -37.64189,7.1937 -27.20117,17.3335 6.44248,6.2569 19.6869,8.249 26.99342,4.0601 z m 633.91384,-1.5247 c 18.2707,-8.2984 15.192,-42.1465 -7.6335,-83.927 -16.7799,-30.7142 -29.3428,-49.5323 -68.8996,-103.20475 -18.3901,-24.95269 -40.4766,-57.40526 -43.9455,-64.57097 -13.4497,-27.78343 -2.3127,54.80344 13.9542,103.47722 35.8228,107.1893 75.4554,162.3368 106.5244,148.2255 z m 113.84,-7.0426 c 27.7102,-4.5553 41.5945,-24.4641 17.0612,-24.4641 -18.7946,0 -31.9506,8.6572 -35.2603,23.2031 l -0.5866,2.5781 5.4084,0 c 2.9747,0 8.9945,-0.5931 13.3773,-1.3135 z M 648.28125,1134.374 c 16.52219,-6.2875 29.83527,-19.4832 46.86401,-46.4509 3.56563,-5.6468 10.77605,-17.0168 16.02316,-25.2668 13.76303,-21.6395 20.74573,-33.3316 42.83166,-71.7188 18.46171,-32.088 24.44171,-41.94469 54.318,-89.53125 27.9022,-44.44226 41.47279,-71.60579 51.80688,-103.69915 9.27781,-28.81298 14.82293,-68.49657 9.93667,-71.11162 -2.95688,-1.58247 -3.30441,-1.30972 -8.74171,6.86067 -22.93931,34.46998 -57.37938,65.65743 -124.91367,113.11647 -33.10462,23.26393 -51.13577,36.85056 -51.55283,38.8455 -10.48899,50.17171 -27.66281,94.59685 -60.90574,157.55068 -20.88275,39.5466 -24.01741,71.5665 -8.88902,90.7991 3.24825,4.1295 23.01615,4.4901 33.22259,0.6061 z m 784.09765,-0.045 c 12.5992,-2.0444 19.5032,-9.4241 17.4712,-18.6751 -2.9808,-13.5716 -29.9369,-0.9366 -31.2284,14.6375 l -0.4164,5.0208 4.1005,-0.01 c 2.2553,0 6.7881,-0.4431 10.0731,-0.9761 z m -77.0991,-1.0207 c 12.1834,-3.0678 15.0594,-15.407 5.1477,-22.0864 -10.5062,-7.0801 -29.1775,-0.7098 -29.1775,9.9549 0,10.9272 9.5884,15.7679 24.0298,12.1315 z m -882.62225,-1.3979 c 3.34958,-0.5539 3.42548,-0.6569 2.92551,-3.974 -1.43516,-9.5218 -6.57133,-12.6347 -21.59868,-13.0906 l -10.54688,-0.3199 0,2.9397 c 0,10.4949 13.31148,17.0754 29.22005,14.4448 z m -76.76051,-2.2664 c 6.81156,-3.2018 -4.66372,-20.0281 -16.29322,-23.8908 -8.22757,-2.7328 -14.99528,0.2666 -18.09786,8.0207 -4.31337,10.7801 20.6817,22.3144 34.39108,15.8701 z m 853.79046,-13.3005 c 7.0013,-2.0396 11.25,-14.5375 11.25,-33.092 0,-22.3207 -6.0942,-37.4183 -30.4514,-75.439 -25.4847,-39.78075 -41.2277,-74.05259 -61.9985,-134.96843 l -2.7063,-7.9372 -6.5625,-3.71373 c -80.0169,-45.28173 -147.4885,-94.39702 -178.05633,-129.61426 -6.70003,-7.71914 -8.22516,-8.65505 -8.85,-5.43082 -0.189,0.97567 -1.00472,2.25726 -1.81256,2.84797 -2.81072,2.05527 5.26368,33.51251 14.96268,58.29338 14.79351,37.79711 34.71351,70.71824 83.06491,137.27833 25.841,35.57242 35.5481,49.70101 51.7185,75.27601 63.7674,100.85375 92.9602,127.12785 129.4415,116.49975 z m -702.16291,-10.1407 c 36.78697,-4.5595 48.89737,-17.0871 78.80021,-81.5153 7.05981,-15.2109 16.28904,-34.79634 20.50941,-43.52325 18.09669,-37.42013 25.35764,-59.68285 26.90059,-82.47973 l 0.62837,-9.28423 -3.66596,0.50711 c -10.05455,1.39084 -68.29385,31.71876 -102.00625,53.11944 -77.23931,49.03154 -114.30778,99.81086 -97.89148,134.09946 9.63281,20.12 43.97723,33.1354 76.72511,29.0765 z m 859.66291,-5.6398 c 17.5056,-2.8306 22.0317,-17.7505 5.3849,-17.7505 -10.509,0 -21.3224,8.5109 -21.3224,16.7823 0,2.3312 5.4578,2.6628 15.9375,0.9682 z m -989.41605,-2.8721 c 2.51477,-1.0981 4.70887,-2.1136 4.87581,-2.2566 2.90508,-2.4892 -10.87077,-13.509 -16.94414,-13.554 -2.03241,-0.015 -0.44846,7.1559 2.71139,12.2753 3.91792,6.3475 3.38121,6.1447 9.35694,3.5353 z m 1075.21955,-4.9242 c 10.8138,-4.9508 17.2382,-14.0634 13.0329,-18.4868 -12.0144,-12.6373 -33.2195,-3.0571 -34.3871,15.5356 -0.4008,6.3808 10.5554,7.895 21.3542,2.9512 z m -1157.33178,-6.032 c 3.2705,-18.3005 -0.93266,-33.4985 -10.01137,-36.1995 -4.69574,-1.3969 -6.5307,25.3861 -2.37195,34.6211 4.65402,10.3347 10.6812,11.103 12.38332,1.5784 z M 1346.25,1079.3624 c 32.1908,-6.4226 52.3093,-28.6411 48.7376,-53.8249 -6.8918,-48.59369 -76.5448,-100.7126 -195.8617,-146.5565 l -16.3429,-6.27926 -2.4071,1.78873 c -10.5606,7.84744 52.5552,137.22533 87.1061,178.55453 20.6999,24.761 45.3276,32.9893 78.768,26.3174 z m -974.74293,-18.3971 c 2.40538,-7.2653 -12.01124,-24.8362 -16.60696,-20.2405 -1.05784,1.0579 1.47558,15.351 3.22171,18.1763 3.46599,5.6081 11.7871,6.8914 13.38525,2.0642 z m 1083.42863,2.0859 4.7154,-1.0113 -0.5814,-7.1918 c -0.6909,-8.5465 -0.3622,-7.953 -3.7053,-6.6897 -3.9533,1.4939 -13.4894,11.648 -13.4894,14.3637 0,1.5256 7.0772,1.8124 13.0607,0.5291 z m 84.1214,-12.3545 c 9.5756,-14.3715 6.1088,-40.0415 -5.4113,-40.0682 -1.4264,0 -3.6961,9.6386 -6.0778,25.8171 -1.5885,10.7914 6.8337,21.2382 11.4891,14.2511 z M 439.15461,1038.4313 c 12.29839,-5.6305 23.62283,-15.798 46.11088,-41.40005 23.77587,-27.06825 39.03986,-38.83697 85.20326,-65.69297 22.99513,-13.37761 21.54706,-12.49177 21.01563,-12.85599 -1.05128,-0.7205 -41.4827,1.21454 -53.82813,2.57619 -80.81099,8.91319 -134.88862,32.16124 -146.79108,63.10577 -12.39041,32.21315 19.11818,67.62195 48.28944,54.26705 z M 1501.019,1025.3629 c 6.4245,-4.3295 9.5764,-14.9898 5.9591,-20.1543 -2.1221,-3.0297 -3.4019,-2.6258 -8.3122,2.6238 -10.8895,11.6417 -9.0661,25.2259 2.3531,17.5305 z M 308.4375,1011.2082 c 0,-1.7417 0.63281,-4.6813 1.40625,-6.5324 3.40593,-8.15146 -0.87401,-13.97014 -10.11793,-13.75555 -2.05588,0.0478 -6.28686,11.88785 -6.28758,17.59535 l -7.4e-4,5.8594 7.5,0 7.5,0 0,-3.1668 z m 1137.5553,-3.9751 c 18.1708,-6.1914 31.7274,-35.03397 24.9555,-53.09444 -13.2621,-35.36973 -102.6931,-64.26952 -184.7461,-59.70102 -20.8846,1.1628 -20.7504,1.04837 -8.6978,7.41595 28.5505,15.08359 64.7875,40.15513 90.7769,62.80625 42.822,37.32166 62.111,47.88896 77.7115,42.57326 z m -623.8053,-0.5176 c 0,-3.4278 12.88223,-32.37813 29.54775,-66.403 41.34671,-84.41473 51.15394,-122.73964 45.48332,-177.74071 -1.65121,-16.01555 -5.6953,-20.38387 -8.89526,-9.60844 -4.37467,14.73107 -13.65471,36.8459 -28.65514,68.28665 -37.45508,78.50545 -47.18245,120.88341 -40.40238,176.01562 1.03988,8.45588 2.92171,14.54238 2.92171,9.44988 z m -469.0299,-2.4602 c 2.14996,-1.3665 -1.35822,-13.26839 -4.97796,-16.88818 -4.22136,-4.22137 -6.94892,-3.8234 -8.71025,1.27097 -3.42231,9.89832 5.91879,20.55581 13.68821,15.61721 z M 1044.231,986.48541 C 1041.9668,924.999 1027.8954,883.07069 983.42813,805.3125 975.02428,790.61719 964.10991,770.78906 959.17378,761.25 l -8.97469,-17.34375 -0.79096,5.625 c -7.41263,52.71396 11.01328,110.85409 62.45947,197.08069 11.9493,20.0279 24.0465,40.93134 26.8824,46.45218 6.5093,12.67178 6.2033,13.03908 5.481,-6.57871 z m 520.4565,-15.00254 c 5.5909,-2.7929 2.983,-12.94303 -4.9674,-19.33425 -5.8005,-4.66284 -10.5432,0.67744 -9.7084,10.93172 0.7959,9.77738 5.981,12.74607 14.6758,8.40253 z m -47.5291,-6.59053 c 1.6064,-1.77506 2.0845,-5.69822 1.7797,-14.60334 l -0.1881,-5.49225 -2.5781,0.64341 c -5.7253,1.42884 -8.6719,6.68428 -8.6719,15.46725 l 0,5.65509 4.0734,0 c 2.7164,0 4.5771,-0.55641 5.585,-1.67016 z M 305.07961,961.67175 c 1.7657,-7.14694 -3.61012,-16.29413 -11.90273,-20.25291 -6.78179,-3.23756 -9.41875,4.99547 -5.83752,18.22566 l 1.63839,6.05269 7.62049,-0.27047 7.62051,-0.27047 0.86086,-3.4845 z m 40.47279,-13.92872 c 6.44011,-5.34478 -5.61196,-17.73864 -14.6239,-15.0386 -5.70505,1.70928 -6.00558,2.83586 -2.24579,8.41882 5.31122,7.88672 12.12261,10.55953 16.86969,6.61978 z m 69.29135,-1.25559 c 72.70435,-12.82038 139.635,-74.85986 141.79722,-131.43496 l 0.46976,-12.29127 -4.84721,-0.46576 c -3.71776,-0.35723 -6.66384,0.1447 -12.64358,2.15413 -10.59302,3.55966 -22.96333,5.83567 -55.72886,10.25359 -74.00544,9.97845 -88.28767,14.88109 -111.75762,38.36282 -50.98677,51.01237 -26.05464,105.54717 42.71029,93.42145 z M 1567.1369,921.39727 c 6.7246,-6.78624 5.8882,-23.27227 -1.1808,-23.27227 -2.2975,0 -12.3483,10.23695 -13.5116,13.76192 -3.6928,11.18931 6.4944,17.78348 14.6924,9.51035 z M 326.90021,912.11708 c 3.76347,-10.79921 -1.95986,-31.63309 -6.35812,-23.14462 -0.60453,1.16671 -3.15349,4.04521 -5.66437,6.39667 -7.36516,6.89757 -6.21087,12.17518 3.87228,17.70471 6.08002,3.33425 6.67933,3.2639 8.15021,-0.95676 z m 1153.50549,-0.21426 c 43.5982,-14.31385 37.9421,-65.4192 -11.3432,-102.49086 -22.1507,-16.66141 -39.4885,-20.25774 -105.4688,-21.87701 -39.6274,-0.97253 -46.1558,-1.69046 -60.6819,-6.67332 -19.0848,-6.54659 -20.0985,4.23948 -3.5758,38.04462 23.7951,48.68402 74.8702,81.92082 145.3515,94.58656 5.3523,0.96182 31.4896,-0.20169 35.7182,-1.58999 z m -918.37445,-2.49381 c 37.23367,-6.43902 72.65476,-20.35325 117.99156,-46.34982 118.10703,-67.72376 157.86013,-106.00162 167.82691,-161.59886 1.57011,-8.75842 -8.10614,-6.88855 -43.39796,8.38637 -60.69152,26.26834 -69.82376,27.82007 -114.47152,19.45066 -69.88486,-13.10022 -91.22716,3.40246 -123.33171,95.36472 -17.51694,50.1766 -25.87831,67.70643 -39.54493,82.907 l -4.42367,4.92019 14.05066,-0.56736 c 7.72786,-0.31206 19.11316,-1.44286 25.30066,-2.5129 z m 960.23015,-0.56733 c 5.6868,-3.72615 8.2169,-14.77783 3.6458,-15.9251 -7.294,-1.83065 -16.9008,5.9106 -15.0522,12.12912 1.9017,6.3972 5.5722,7.61871 11.4064,3.79598 z M 285.91701,907.29523 c 2.2587,-1.41058 2.402,-3.59635 0.47954,-7.314 C 282.13251,891.73549 270,895.21689 270,904.6862 c 0,4.14044 10.66547,5.88867 15.91701,2.60903 z M 1330.2795,885.23437 c -0.1086,-2.31154 -7.0086,-13.5712 -12.6232,-20.59896 -13.6158,-17.04249 -18.0262,-25.0916 -35.7005,-65.15417 -17.2303,-39.05633 -26.6765,-55.21595 -40.193,-68.75878 -21.6062,-21.64836 -37.7755,-24.26112 -89.5753,-14.4743 -47.7947,9.03011 -55.1392,8.11959 -115.4198,-14.30884 -23.3904,-8.70278 -41.68664,-13.11833 -42.76054,-10.31969 -10.07532,26.25587 26.43654,69.64524 90.68034,107.76121 93.3113,55.36182 151.1995,79.21318 208.5938,85.9458 5.6835,0.66672 37.0302,0.58854 36.9982,-0.0923 z M 285.94778,874.45312 c 4.29722,-7.04795 1.26263,-20.51703 -5.51423,-24.47493 -3.80273,-2.22091 -3.71571,-2.33465 -5.38206,7.03395 -2.81939,15.85123 4.61255,27.74706 10.89629,17.44098 z m 1249.43862,-0.29895 c 8.4678,-5.54833 7.3286,-18.94878 -2.1066,-24.78007 -6.6601,-4.11617 -6.8877,-3.49332 -7.363,20.15715 -0.1481,7.37058 2.9602,8.88803 9.4696,4.62292 z m -1210.16656,-1.7625 c 6.81435,-3.52384 7.99897,-12.28172 3.47119,-25.6624 -3.53442,-10.44509 -8.441,-11.17498 -15.2358,-2.26641 -10.46466,13.7201 -1.57394,34.82643 11.76461,27.92881 z m 1253.39286,-7.3177 c 4.6843,-2.23786 3.1921,-8.44608 -2.7711,-11.52984 -1.59,-0.82219 -3.026,-1.35831 -3.1913,-1.19139 -10.434,10.5429 -6.6001,18.72282 5.9624,12.72123 z m -4.2216,-32.57842 c 7.0141,-8.33573 1.7699,-26.24555 -7.6849,-26.24555 -2.8811,0 -5.2627,22.30061 -2.7218,25.48552 3.3462,4.19434 7.2754,4.48131 10.4067,0.76003 z m -35.7757,-1.16743 c 5.9048,-10.54318 -1.9325,-32.56113 -11.595,-32.57461 -5.3014,-0.008 -9.1301,18.64715 -6.0216,29.33995 l 1.5536,5.34404 7.4409,0 c 6.7413,0 7.5518,-0.19828 8.6221,-2.10938 z M 306.14735,815.63572 c 20.0465,-9.67387 26.85666,-18.00875 28.95495,-35.43764 l 0.59691,-4.95819 -4.38138,-1.93808 c -19.89998,-8.80272 -39.54742,10.04718 -41.35235,39.67375 l -0.5782,9.49056 2.715,-0.68143 c 1.49325,-0.37478 7.81353,-3.14182 14.04507,-6.14897 z m 157.4464,-6.5903 c 45.57369,-2.67778 83.2699,-9.40621 99.84375,-17.82118 11.54125,-5.85981 18.30754,-14.67643 27.80839,-36.23502 8.12052,-18.42645 17.02844,-31.04636 22.09254,-31.29865 3.06489,-0.15268 -3.82656,-1.8158 -14.818,-3.57602 -132.27465,-21.18311 -228.75682,12.25171 -221.02974,76.5954 1.31568,10.95571 32.80559,15.46707 86.10306,12.33547 z m 1095.44585,-33.9673 c -0.1315,-33.60981 -34.4504,-57.52795 -48.4336,-33.75522 l -2.3405,3.97915 4.2018,5.88825 c 9.039,12.66725 21.4797,22.12206 35.5538,27.02099 11.107,3.86611 11.0459,3.88349 11.0185,-3.13317 z m -116.6958,2.09145 c 21.764,-4.52503 30.6512,-11.15082 29.5365,-22.02068 -5.4891,-53.52429 -74.0015,-77.74835 -181.3381,-64.11605 -30.5129,3.87529 -72.4128,13.02966 -59.6373,13.02966 3.6656,0 10.1733,8.62929 20.1497,26.71875 19.2702,34.9411 27.0264,39.42585 74.5704,43.11769 10.0547,0.78076 28.1953,2.26282 40.3125,3.29348 31.3148,2.66357 30.5929,2.63071 49.6875,2.2616 12.872,-0.24882 19.7609,-0.83784 26.7187,-2.28445 z M 736.40625,719.57879 c 39.63056,-4.75824 79.62528,-17.50354 83.03039,-26.45966 2.01953,-5.31176 0.73577,-5.88124 -7.73017,-3.42915 -30.05578,8.70538 -67.85127,12.47944 -143.73772,14.35285 -54.53218,1.34625 -73.59375,2.07565 -73.59375,2.81614 0,3.52725 47.07265,12.64148 74.53125,14.43078 12.27376,0.7998 55.77135,-0.30275 67.5,-1.71096 z m 420.93755,-13.62965 c 30.9017,-2.84563 90.4687,-14.72517 90.4687,-18.04233 0,-0.42601 -45.457,-0.65666 -101.0156,-0.51256 -91.2033,0.23655 -102.5095,0.10143 -116.3938,-1.39104 -8.4581,-0.90918 -15.5211,-1.51024 -15.6957,-1.33569 -0.6384,0.63845 20.0315,10.02749 27.0114,12.26959 29.6552,9.52586 73.1939,12.91936 115.625,9.01203 z M 421.875,682.80605 c 8.98995,-1.80121 19.79089,-5.27013 40.3125,-12.94708 73.41487,-27.46382 106.31545,-30.32881 199.21875,-17.34802 49.79274,6.95722 66.10323,8.76165 93.75,10.37155 53.0721,3.09044 95.49623,-5.37906 116.66093,-23.29006 l 3.22341,-2.72788 -6.85579,-0.63717 C 837.8166,633.40496 809.94592,620.96722 765.46875,590.38872 732.84371,567.95867 718.7297,560.03877 684.34076,544.8648 613.73778,513.71154 593.15901,511.66537 531.92835,529.71032 497.15512,539.95814 486.86678,541.7009 446.25,544.22349 c -42.57031,2.64393 -56.97779,4.99558 -71.89448,11.73496 -67.73529,30.60286 -26.15067,141.60807 47.51948,126.8476 z M 290.39197,657.59679 c 8.9934,-4.48159 13.81958,-15.62611 9.67268,-22.33594 -11.84038,-19.15813 -42.27306,-16.7279 -42.24692,3.37367 0.0215,16.50132 17.3131,26.56721 32.57424,18.96227 z m 796.17053,-5.52086 c 22.1765,-2.65677 47.1703,-7.0158 89.3613,-15.58496 63.5571,-12.9087 77.03,-14.92847 99.5809,-14.92847 32.451,0 72.7787,7.12093 111.4737,19.68365 47.4375,15.40106 67.9526,12.16821 89.3114,-14.07399 32.4469,-39.86548 21.9402,-90.78089 -21.638,-104.85786 -18.634,-6.01932 -31.2345,-7.41469 -76.9956,-8.52642 -40.791,-0.99098 -46.2335,-1.59531 -81.5625,-9.05644 -78.0233,-16.47777 -102.2199,-9.04417 -198.2812,60.91537 -48.4871,35.31222 -58.3686,40.9214 -92.8125,52.68506 -20.26781,6.92206 -34.40963,13.06828 -39.375,17.11291 l -2.34375,1.90913 6.5625,2.9673 c 28.62337,12.94237 71.09875,17.22007 116.71875,11.75472 z M 879.83004,615.70312 C 875.969,576.69491 850.01048,544.60884 743.88441,447.6673 732.03705,436.84525 708,413.85138 690.46875,396.5698 599.78437,307.17693 558.08542,283.34347 483.73288,278.4078 c -18.14909,-1.20477 -64.60071,1.75512 -67.34436,4.29117 -0.18164,0.16789 2.3085,3.37117 5.53365,7.11839 23.70464,27.54196 41.64078,61.00233 47.83455,89.23667 l 1.19783,5.46029 13.66335,8.04164 c 35.25069,20.74699 43.04479,25.57952 52.10335,32.30535 19.94355,14.80775 32.71099,29.08735 40.07923,44.82619 10.24924,21.89272 11.20972,23.59444 16.04783,28.43256 7.15385,7.15383 15.71588,11.13677 43.709,20.3328 19.43951,6.38608 29.11727,10.16371 42.79694,16.70542 26.50712,12.67591 68.36335,34.42257 84.2395,43.76716 41.43087,24.3859 54.22103,30.92413 72.35407,36.98684 13.84415,4.62874 23.43823,6.39536 35.3192,6.50359 l 9.23577,0.0841 -0.67275,-6.79687 z m 97.47312,1.96848 c 23.57074,-4.66794 43.34704,-15.00008 81.60314,-42.63363 36.1723,-26.12837 44.7013,-31.06855 105,-60.81813 65.9514,-32.53846 72.5481,-36.33955 74.4639,-42.90682 10.7739,-36.93258 49.4076,-78.73726 99.4612,-107.62493 9.452,-5.45508 9.3899,-5.36953 12.2218,-16.81309 8.5039,-34.36423 23.7757,-67.58566 38.0407,-82.75194 12.0938,-12.85783 9.9476,-14.30083 -21.1286,-14.20636 -102.5278,0.3117 -151.5292,29.17439 -253.7414,149.4583 -30.5529,35.95483 -41.957,48.78528 -63.2239,71.13128 -36.2038,38.04088 -47.3311,50.6089 -60.19444,67.98833 -19.61465,26.50091 -30.36347,51.16562 -32.20865,73.90738 l -0.64332,7.92792 5.50763,-0.40487 c 3.02916,-0.22267 9.708,-1.23672 14.84194,-2.25344 z m 587.43644,-1.28374 c 22.2972,-7.86691 15.4124,-40.28657 -7.7593,-36.53787 -16.3115,2.63885 -25.5602,15.73242 -19.5015,27.6084 4.3256,8.47905 16.8811,12.59166 27.2608,8.92947 z M 245.1345,569.78133 c -0.0338,-8.29478 -4.75878,-13.1857 -13.95593,-14.44631 l -4.43984,-0.60855 0.6198,3.65238 c 1.5084,8.88858 5.9406,14.8541 12.17272,16.38392 5.14496,1.26296 5.627,0.8344 5.60325,-4.98144 z m 61.95832,-1.77916 c 2.61198,-0.96667 5.86568,-2.92308 7.23045,-4.34758 l 2.48137,-2.59001 -0.57669,-11.46978 -0.5767,-11.4698 -4.96698,0 c -15.7296,0 -29.35736,7.51028 -35.45212,19.53773 l -2.38258,4.70178 2.97549,2.50372 c 7.19568,6.05476 19.92745,7.33085 31.26776,3.13394 z m 89.62884,-24.65555 c 7.38903,-1.25324 25.45803,-5.04053 40.15334,-8.41621 14.69531,-3.37566 36,-7.85045 47.34375,-9.94396 101.97604,-18.81984 112.00691,-43.01341 39.42134,-95.08071 -28.37851,-20.35656 -66.47605,-22.02867 -151.04975,-6.62964 -51.03595,9.29254 -69.07711,34.25077 -57.31463,79.28937 10.19808,39.0485 30.81037,49.36936 81.44595,40.78115 z M 1543.3794,529.22419 c 7.9398,-1.27254 13.9777,-9.62872 11.0724,-15.32369 -8.2651,-16.20087 -43.2018,-21.58776 -43.2018,-6.66128 0,12.96118 14.2553,24.90684 27.1875,22.78262 0.7734,-0.12704 2.9973,-0.48599 4.9419,-0.79765 z m 50.6351,0.11538 c 5.6346,-2.40089 7.6056,-5.5536 8.0163,-12.82273 0.432,-7.64578 -0.072,-7.91971 -7.886,-4.28139 -12.3099,5.73202 -12.4365,22.34771 -0.1303,17.10412 z M 222.85731,510.48967 c -1.00958,-9.78187 -6.1113,-16.40182 -17.62062,-22.86435 -6.72877,-3.77824 -6.81429,-3.7569 -6.07594,1.5153 2.00785,14.33725 7.77846,22.39784 18.33318,25.60844 5.51324,1.67705 5.94101,1.33734 5.36338,-4.25939 z m 57.63568,2.7279 c 24.11387,-8.50786 10.32262,-38.84257 -17.65923,-38.84257 -13.90844,0 -23.77126,8.03314 -23.77126,19.3614 0,15.07302 23.11651,25.94272 41.43049,19.48117 z m 1192.71891,-4.62565 c 43.1703,-9.14538 53.6521,-92.23068 14.0216,-111.14455 -33.3409,-15.91212 -143.8963,-21.34271 -170.5147,-8.37585 -12.6435,6.15912 -38.1781,28.61439 -49.2562,43.31604 -27.4299,36.40231 -8.5684,53.14012 72.6937,64.50848 11.3437,1.58696 30.75,4.38871 43.125,6.22609 46.8659,6.95847 74.8647,8.66142 89.9306,5.46979 z m 90.6991,-36.21403 c 31.8877,-6.8387 32.5367,-41.35447 0.7765,-41.29859 -19.4871,0.0343 -34.6759,16.12787 -31.0968,32.94902 1.5225,7.15526 16.5689,11.29872 30.3203,8.34957 z m 54.7145,-8.72319 c 6.8924,-6.935 8.7444,-14.8165 5.2893,-22.50925 l -1.661,-3.69829 -2.0347,3.29209 c -1.1191,1.81066 -4.1143,5.04574 -6.6562,7.18906 -6.6613,5.61687 -11.4171,18.59247 -8.0491,21.96056 1.5751,1.57505 8.7329,-1.8282 13.1117,-6.23417 z M 249.9602,437.99408 c 6.47178,-3.30475 11.28706,-10.79365 10.49776,-16.32647 -1.16564,-8.17095 -39.7338,-7.3809 -40.90427,0.8379 -1.92926,13.54678 16.16222,22.76227 30.40651,15.48857 z m -64.40485,-2.48931 c 6.11842,-3.16396 7.94615,-16.4913 2.5078,-18.28612 -7.3884,-2.43839 -14.17264,3.48879 -13.48496,11.78139 0.63941,7.71041 4.37034,9.92124 10.97716,6.50473 z m 193.21924,-19.28379 c 12.8698,-1.56577 22.50109,-4.32811 47.37055,-13.58632 12.9189,-4.80934 26.31343,-9.49688 29.76563,-10.41676 6.85707,-1.82715 6.94737,-1.97646 4.81392,-7.9594 -0.80455,-2.25624 -3.75547,-12.20516 -6.55761,-22.10871 -8.33316,-29.45183 -12.80242,-39.91029 -21.06762,-49.30005 -32.09674,-36.46383 -117.1455,-32.04224 -135.79013,7.05958 -25.797,54.10187 16.58313,104.20544 81.46526,96.31166 z M 1594.7414,392.18881 c 1.7751,-2.40552 4.1766,-5.66316 5.3367,-7.23917 5.8582,-7.95798 -4.4305,-15.89361 -18.3811,-14.17733 -26.9464,3.31508 -24.2084,25.29669 3.2007,25.69423 l 6.6164,0.096 3.2273,-4.37369 z m 51.4557,-9.92319 c -0.1009,-12.96647 -2.1743,-15.09224 -11.5206,-11.81202 l -3.6048,1.26515 0.3834,5.39158 c 0.5617,7.89828 4.2085,11.42792 12.2168,11.8245 l 2.5781,0.12767 -0.053,-6.79688 z m -1407.18613,0.72131 c 31.24596,-11.02421 22.10444,-60.01818 -11.19847,-60.01818 -23.71623,0 -39.19907,25.28243 -28.66643,46.81036 6.20952,12.69182 24.32044,18.69222 39.8649,13.20782 z m 1239.89533,-2.73241 c 31.947,-8.60758 49.038,-33.69113 47.0173,-69.00452 -2.7444,-47.95687 -34.8747,-68.01028 -90.1423,-56.26037 -45.8368,9.7449 -61.8357,25.89813 -70.3392,71.01779 -3.9521,20.96981 -6.2216,32.36685 -6.6866,33.57857 -0.2906,0.75746 2.0087,1.67674 6.8885,2.75403 4.0286,0.88937 18.2935,4.73998 31.6998,8.55692 13.4062,3.81693 28.8046,7.76191 34.2187,8.76661 5.4141,1.0047 10.8984,2.02125 12.1875,2.25899 5.2538,0.96898 29.6683,-0.18939 35.1563,-1.66802 z M 175.83058,359.39337 c 11.06174,-5.73911 8.96107,-19.08659 -3.00246,-19.07736 -9.48138,0.007 -17.76292,9.1731 -15.70316,17.37986 1.1475,4.57198 11.37618,5.50021 18.70562,1.6975 z M 1594.8225,338.02223 c 38.3376,-8.12583 32.9215,-60.24685 -6.2287,-59.94233 -28.734,0.22351 -41.767,44.15597 -16.997,57.29473 6.7304,3.57003 14.6268,4.47018 23.2257,2.6476 z M 135.51659,332.37386 c 4.54132,-10.8689 -3.18015,-22.94249 -14.69868,-22.98344 -7.22311,-0.0257 -9.98784,9.00636 -5.55799,18.15723 4.14619,8.56487 17.37741,11.71725 20.25667,4.82621 z M 1658.4045,312.05853 c 2.9803,-1.03894 3.0481,-1.18315 2.6251,-5.58548 -1.4358,-14.9423 -21.5173,-20.17891 -28.1627,-7.34391 l -1.6644,3.21461 3.0707,2.61597 c 7.8695,6.70438 17.3026,9.47933 24.1313,7.09881 z M 180.11959,306.88717 c 2.39912,-2.89078 1.65401,-13.17028 -1.40643,-19.4031 l -2.69309,-5.48466 -7.2895,0.33103 c -12.10916,0.54991 -13.47232,4.16818 -7.27495,19.31018 l 2.78185,6.79688 7.29772,0 c 5.64461,0 7.58919,-0.35119 8.5844,-1.55033 z m 61.03687,-13.38579 c 36.01788,-9.21182 43.29206,-51.00691 10.23177,-58.78841 -20.24258,-4.76456 -71.00884,5.57727 -75.32993,15.34581 -12.50105,28.26067 25.44564,53.58401 65.09816,43.4426 z M 1690.8147,283.7568 c 9.1563,-3.5408 13.1659,-13.10296 9.6834,-23.09303 l -1.0646,-3.05353 -5.8542,0.37277 c -9.9807,0.63552 -15.7522,6.75579 -15.7526,16.70449 -4e-4,9.98025 3.7893,12.62651 12.988,9.0693 z M 125.81744,274.16786 c 17.89622,-6.09784 18.51173,-24.33959 1.10858,-32.85416 -18.96505,-9.27873 -42.506232,6.69912 -34.555703,23.45362 4.347086,9.1608 20.679143,13.75104 33.447123,9.40054 z m 269.77358,-10.85185 c 8.65905,-2.20187 9.07829,-2.59378 7.69908,-7.19714 -7.24358,-24.17693 -58.60849,-31.89209 -79.19804,-11.89578 -4.56539,4.43385 -4.50571,4.60706 2.86106,8.30427 24.59578,12.34403 48.03362,16.02804 68.6379,10.78865 z m 145.34648,-2.5984 c 0,-1.05533 -12.35697,-12.64077 -21.09375,-19.77672 -23.97735,-19.58402 -53.55264,-32.6596 -84.90892,-37.53921 -11.6978,-1.82039 -11.73007,-1.48148 -0.79876,8.38984 24.31179,21.95428 47.76363,36.00495 73.52018,44.04806 14.35438,4.4825 33.28125,7.2566 33.28125,4.87803 z m 1110.8736,-5.38328 c 3.365,-13.36395 1.5081,-22.4146 -4.5607,-22.22914 -12.3786,0.3783 -19.2532,11.35669 -14.1506,22.59793 l 1.8085,3.98438 7.9033,0 7.9033,0 1.0962,-4.35317 z m -49.7063,-5.52894 c 19.8422,-4.6771 32.3242,-17.56406 34.942,-36.07574 l 1.0675,-7.54783 -3.082,-3.17972 c -11.3574,-11.71784 -49.0196,-18.33155 -70.3448,-12.35298 -52.5626,14.73604 -16.4368,71.85048 37.4173,59.15627 z m -309.761,-15.47152 c 29.1665,-10.27272 55.4175,-27.00669 79.5825,-50.73075 14.5525,-14.28689 14.615,-14.0764 -2.8842,-9.71114 -43.7598,10.91615 -89.3388,41.77088 -97.6219,66.08534 -0.3586,1.05299 9.3316,-1.56065 20.9236,-5.64345 z M 81.767761,230.58374 c 6.190443,-1.71925 9.457816,-5.27659 8.870224,-9.65741 -2.061224,-15.36758 -27.593833,-24.09581 -34.037294,-11.63553 -6.811978,13.17292 8.316714,25.97274 25.16707,21.29294 z M 1451.6691,228.76272 c 13.8253,-3.53594 26.2036,-10.04622 33.7022,-17.7254 l 3.6386,-3.72629 -4.5831,-2.91323 c -25.0051,-15.89446 -71.0592,-5.31526 -75.7834,17.40835 -1.6223,7.80372 23.7031,11.89844 43.0257,6.95657 z M 322.89578,224.5746 c 7.7692,-1.48649 19.29172,-6.47021 19.29172,-8.34405 0,-3.95945 -8.72055,-11.90832 -17.13123,-15.61529 -14.65442,-6.45888 -52.24377,-7.86734 -52.24377,-1.95756 0,17.32623 25.6391,30.59384 50.08328,25.9169 z m 1377.79342,-1.06097 c 5.3701,-1.56753 12.2624,-5.12681 15.4046,-7.95504 1.692,-1.52299 1.8461,-2.66165 1.5788,-11.66746 l -0.2963,-9.97975 -7.0216,-3.33461 c -18.1417,-8.61542 -32.9075,-2.80847 -33.9361,13.34604 -0.9642,15.14151 9.7861,23.81889 24.2706,19.59082 z M 205.78125,211.44405 c 28.85156,-4.80154 52.03125,-19.89241 52.03125,-33.87436 0,-4.87107 -67.42151,-7.87982 -86.13999,-3.84408 -21.45838,4.62647 -33.16527,13.94416 -35.68272,28.40039 -1.3008,7.46974 -1.52472,7.22799 8.13879,8.78688 18.80402,3.03341 45.24814,3.26124 61.65267,0.53117 z M 350.46277,186.8098 c -1.78614,-37.3587 -56.70095,-62.80608 -56.51221,-26.18762 0.11258,21.84218 15.53483,32.3075 52.45569,35.59574 4.18674,0.37287 4.49047,-0.33157 4.05652,-9.40812 z M 104.783,189.76589 c 7.57202,-2.5161 12.52745,-5.37897 16.37104,-9.45793 l 2.5603,-2.71708 -1.94544,-3.93207 C 110.80897,151.5068 65.625,152.82443 65.625,175.29606 c 0,15.12695 17.603891,21.63201 39.158,14.46983 z m 1401.0527,-4.66673 c 14.8091,-3.58219 26.8006,-13.9965 29.2642,-25.41507 l 0.6413,-2.97216 -5.4487,-0.77784 c -25.6937,-3.66795 -53.4592,4.78299 -63.5487,19.34222 -3.2601,4.70434 -2.9131,5.19834 6.0126,8.56116 9.3404,3.51901 21.7849,3.99366 33.0793,1.26169 z M 421.875,182.24647 c 0,-12.84818 -24.53062,-29.21821 -47.71418,-31.84114 l -5.70967,-0.64598 0.99351,2.84998 c 3.4462,9.8858 15.19143,21.47172 25.87637,25.52538 8.48877,3.22047 26.55397,6.01779 26.55397,4.11176 z m 1321.521,-7.70552 c 7.188,-3.69606 10.6665,-9.10842 10.6665,-16.59671 0,-16.39193 -31.9319,-10.27051 -35.1217,6.73293 -1.8044,9.61774 13.1799,15.66147 24.4552,9.86378 z m -95.9268,-10.34259 c 8.6272,-2.31031 18.9985,-7.53583 22.7702,-11.47264 l 2.6853,-2.8028 -2.2589,-4.25802 c -11.8122,-22.26617 -81.3102,-28.77109 -119.6853,-11.20238 l -5.1253,2.34643 1.4008,2.70887 c 10.3658,20.0452 66.1864,33.79271 100.2132,24.68054 z M 193.2946,161.26178 c 24.39195,-5.32106 44.998,-20.96239 42.79982,-32.48786 -4.22177,-22.13552 -111.47317,-14.70139 -111.39776,7.72154 0.0685,20.38311 33.4479,32.43425 68.59794,24.76632 z m 1285.1429,-4.90268 c 19.924,-4.79184 32.8125,-21.24265 32.8125,-41.88182 l 0,-8.39437 -3.5156,-1.21829 c -22.0646,-7.646198 -48.1362,16.15191 -52.3301,47.76685 l -0.6279,4.73306 3.1587,0.43464 c 4.2542,0.5854 15.3093,-0.1911 20.5024,-1.44007 z m -81.906,-6.82243 c 15.1628,-2.90112 27.7268,-11.46422 35.0627,-23.89731 5.3574,-9.08011 5.7334,-11.42404 1.7097,-10.66047 -26.1545,4.96339 -42.2933,16.53563 -47.2067,33.84923 -0.7358,2.59308 0.2388,2.65927 10.4343,0.70855 z M 48.515625,146.5966 c 3.354274,-0.8989 2.812021,-5.95686 -1.36395,-12.72247 l -3.473324,-5.62722 -4.631433,0.61438 c -7.187999,0.95352 -17.484418,7.90991 -17.484418,11.81269 0,2.32604 22.184007,7.2007 26.953125,5.92262 z m 222.170165,-3.58585 c 5.56975,-2.59313 8.87258,-6.96038 8.47549,-11.20695 -0.7713,-8.24869 -25.06391,-9.9556 -29.85534,-2.09778 -6.62038,10.8573 7.61251,19.71445 21.37985,13.30473 z m 76.73245,-2.78992 c -2.82681,-7.40191 -9.26,-11.68533 -23.35561,-15.55093 -8.52927,-2.33908 -8.57488,-2.32173 -7.21131,2.74215 2.04047,7.57771 8.47404,11.94704 22.84562,15.51551 10.09869,2.5075 9.75821,2.62685 7.7213,-2.70673 z m 1377.66536,-2.8909 c 11.1165,-3.78777 18.5555,-16.80531 13.7051,-23.98268 -11.3287,-16.76345 -55.9762,-7.75743 -55.9762,11.29117 0,10.09258 26.5254,18.05661 42.2711,12.69151 z M 105.62836,124.29653 c 16.73829,-9.11013 12.11531,-29.483771 -7.085223,-31.22481 -24.07362,-2.182919 -37.221569,25.0605 -15.879075,32.90249 6.394632,2.34962 16.986554,1.57581 22.964298,-1.67769 z m 1540.15294,-9.95616 c 22.1165,-3.15106 34.1931,-14.25898 30.4829,-28.037919 -8.0213,-29.788389 -103.5875,-25.193839 -111.2532,5.348729 -3.221,12.83372 48.3209,27.31239 80.7703,22.68919 z m -182.3838,-8.09863 c 12.6206,-3.47103 23.4775,-12.044149 23.4775,-18.538934 0,-8.407493 -26.0956,5.03113 -31.9132,16.434544 -2.7248,5.34111 -3.0437,5.26155 8.4357,2.10439 z m 86.1368,-4.34153 c 12.4113,-4.439773 5.7137,-18.885611 -8.753,-18.878968 -16.4961,0.0076 -19.5269,3.304797 -13.3594,14.533977 l 3.0469,5.547531 7.9687,-0.0418 c 4.3828,-0.023 9.3764,-0.54532 11.0968,-1.16075 z M 40.060311,88.910649 C 47.051017,87.114135 46.707892,85.905207 38.384953,83.007906 27.985358,79.387699 19.6875,80.410469 19.6875,85.3125 c 0,4.927848 9.00788,6.518777 20.372811,3.598149 z M 1774.2405,86.749166 c 6.212,-3.039245 6.6297,-6.254815 1.4283,-10.995783 -8.0481,-7.335622 -25.3563,-0.211606 -25.3563,10.436565 0,4.486649 15.1757,4.84132 23.928,0.559218 z M 168.83363,87.372004 C 170.31964,85.614586 167.492,78.429492 163.90123,74.838733 149.39047,60.327961 114.375,63.569317 114.375,79.423342 c 0,5.072497 50.64067,12.4639 54.45862,7.948662 z M 1722.3353,71.018941 c 20.5094,-12.019344 -3.4344,-38.757516 -26.1935,-29.250459 -9.3548,3.907712 -14.7566,14.689116 -10.9997,21.954164 4.9296,9.532617 26.2427,13.71369 37.1932,7.296295 z m -67.179,-32.616072 c 19.0425,-2.713084 32.2222,-12.397499 24.6093,-18.082878 -16.0062,-11.9535975 -48.3783,-1.267638 -48.495,16.008134 l -0.021,3.046875 8.6719,-0.01857 c 4.7695,-0.01021 11.625,-0.439316 15.2344,-0.95356 z m 123.9536,-7.75873 c 4.0081,-4.075695 -6.8865,-8.376835 -15.8012,-6.238239 -4.5135,1.082768 -11.1212,5.62143 -11.1212,7.638855 0,1.826953 25.0288,0.524847 26.9224,-1.400616 z"
     id="path4846"
     inkscape:connector-curvature="0" />
</svg>
