<?xml version="1.0" encoding="UTF-8" standalone="no"?>
<!DOCTYPE svg PUBLIC "-//W3C//DTD SVG 1.1//EN" "http://www.w3.org/Graphics/SVG/1.1/DTD/svg11.dtd">
<svg width="100%" height="100%" viewBox="0 0 5670 6502" version="1.1" xmlns="http://www.w3.org/2000/svg" xmlns:xlink="http://www.w3.org/1999/xlink" xml:space="preserve" xmlns:serif="http://www.serif.com/" >
    <g transform="matrix(1,0,0,1,-2373.35,-1957.37)">
        <g transform="matrix(4.16667,0,0,4.16667,0,0)">
            <path d="M1310.73,1588.75C1227.78,1540.53 1143.23,1495.11 1060.98,1445.68C1057.25,1443.44 1053.37,1445.09 1051.39,1447.84C1012.95,1427.68 983.402,1407.23 963.074,1391.71C870.082,1320.71 827.069,1225.5 827.069,1225.5C814.683,1211.05 755.483,1139.04 769.175,1045.48C779.477,975.077 825.616,929.623 842.562,913.382C914.781,844.167 969.105,871.644 1015.75,810.641C1045.96,771.144 1048.76,726.185 1053.92,643.318C1061.24,525.624 1034.99,485.826 1053.92,473.06C1099,442.643 1309.28,627.23 1433.47,854.51C1490.08,958.135 1519.61,1053.96 1533.35,1104.41C1550.6,1167.74 1564.51,1240.49 1570.57,1322.38C1582.31,1480.93 1560.55,1618.85 1531.65,1726.26C1456.03,1684.06 1385.62,1632.28 1310.73,1588.75Z" style="fill:rgb(3,4,4);fill-rule:nonzero;"/>
        </g>
        <g transform="matrix(4.16667,0,0,4.16667,0,0)">
            <path d="M1504.22,1646.57C1518.35,1648.34 1520.3,1610.94 1521.42,1582.29C1526.86,1443.86 1529.58,1374.64 1510.45,1285.69C1489.98,1190.51 1475.14,1125.36 1429.94,1105.04C1398.07,1090.72 1361.5,1103.37 1341.84,1117.54C1268.08,1170.72 1332.57,1317.52 1393.8,1456.9C1404.82,1481.99 1417.76,1506.15 1443.65,1554.45C1487.75,1636.75 1497.8,1645.77 1504.22,1646.57Z" style="fill:white;fill-rule:nonzero;"/>
        </g>
        <g transform="matrix(4.16667,0,0,4.16667,0,0)">
            <path d="M1354.19,1433.88C1340.74,1403.73 1327.62,1372.66 1315.01,1340.7C1309.99,1327.97 1305.16,1315.4 1300.51,1302.98C1256.18,1257.1 1213.43,1224.88 1182.8,1204.14C1110.38,1155.12 1082.92,1154.94 1074.31,1155.29C1072.5,1155.36 1042.2,1156.97 1036.28,1176.6C1034.98,1180.93 1033.14,1191.84 1045.92,1211.97C1074.82,1257.48 1141.44,1291.83 1178.19,1312.34C1224.16,1337.98 1285.22,1376.46 1354.19,1433.88Z" style="fill:white;fill-rule:nonzero;"/>
        </g>
        <g transform="matrix(4.16667,0,0,4.16667,0,0)">
            <path d="M1428.58,1557.99C1414.23,1535.72 1395.46,1505.05 1375.59,1467.49C1340.28,1439.98 1106.65,1259.49 1024.59,1272.58C1015.11,1274.1 988.168,1278.39 984.551,1296.58C981.125,1313.81 1000.15,1335.52 1015.83,1351.26C1109.15,1444.98 1365.87,1569.97 1434.83,1608.72C1442.84,1613.23 1454.51,1619.69 1458.86,1617.24C1466.03,1613.22 1448.02,1588.13 1428.58,1557.99Z" style="fill:white;fill-rule:nonzero;"/>
        </g>
        <g transform="matrix(4.16667,0,0,4.16667,0,0)">
            <path d="M1291.98,1274.16C1283.27,1255.86 1273.95,1230.17 1273.52,1201.73C1273.36,1191.85 1274.31,1183.07 1275.81,1175.4C1243.73,1146.16 1210.95,1117.52 1176.81,1088.8C1176.81,1088.8 1128.26,1048.11 1096.79,1044.63C1095.64,1044.5 1094.69,1044.45 1093.92,1044.41C1092.44,1044.34 1067.7,1043.46 1060.87,1057.88C1059.36,1061.06 1056.74,1069.18 1065.02,1085.26C1083.74,1121.63 1134.2,1152.18 1161.87,1170.21C1196.48,1192.75 1242.01,1226.03 1291.98,1274.16Z" style="fill:white;fill-rule:nonzero;"/>
        </g>
        <g transform="matrix(4.16667,0,0,4.16667,0,0)">
            <path d="M1278.22,1158.11C1279.59,1147.53 1283.26,1132.28 1293.81,1117.08C1304.09,1102.27 1317.03,1093.1 1326.58,1087.67C1308.85,1036.51 1266.93,991.538 1218.29,973.713C1212.25,971.5 1162.2,953.164 1134.87,972.241C1133.41,973.255 1113.46,987.787 1120.65,1012.65C1126.53,1033.01 1147.11,1048.15 1170.77,1066.7C1197.93,1088 1234.82,1118.26 1278.22,1158.11Z" style="fill:white;fill-rule:nonzero;"/>
        </g>
        <g transform="matrix(4.16667,0,0,4.16667,0,0)">
            <path d="M1202.88,714.176C1251.83,712.9 1317.91,788.772 1353.04,829.11C1409.23,893.628 1441.33,955.293 1427.46,961.516C1422.02,963.954 1412.2,956.7 1390.88,957.077C1375.69,957.346 1373.38,963.282 1365.21,960.761C1352,956.687 1344.2,938.584 1336.11,923.9C1328.34,909.831 1312.39,891.14 1280.48,853.757C1221.61,784.798 1168.07,770.943 1167.47,743.313C1167.12,726.899 1183.8,714.674 1202.88,714.176Z" style="fill:white;fill-rule:nonzero;"/>
        </g>
        <g transform="matrix(4.16667,0,0,4.16667,0,0)">
            <path d="M1263.61,942.986C1272.87,943.012 1276.38,937.983 1290.36,939.21C1310.09,940.942 1321.19,952.169 1325.43,950.06C1334.5,945.548 1296.58,887.785 1237.82,833.094C1206.25,803.709 1180.03,779.823 1147.5,774.66C1144.98,774.258 1109.15,769.038 1097.39,787.198C1091.66,796.03 1094.07,806.637 1094.99,810.018C1102.23,836.66 1134.5,845.397 1196.06,897.194C1226.61,922.901 1245.03,942.93 1263.61,942.986Z" style="fill:white;fill-rule:nonzero;"/>
        </g>
        <g transform="matrix(4.16667,0,0,4.16667,0,0)">
            <path d="M1144.08,905.329C1145.16,892.981 1125.07,877.013 1112.82,867.268C1100.19,857.234 1076.04,838.034 1054.82,838.511C1049.36,838.634 1042.16,840.1 1017.29,880.178C999.992,908.065 999.335,914.029 1002.66,921.333C1009.51,936.389 1031.16,952.497 1048.91,954.607C1068.31,956.915 1066.79,940.542 1096.68,925.932C1123.62,912.758 1143.04,917.181 1144.08,905.329Z" style="fill:white;fill-rule:nonzero;"/>
        </g>
        <g transform="matrix(4.16667,0,0,4.16667,0,0)">
            <path d="M1005.69,976.983C1003.11,966.875 987.652,957.662 985.461,956.356C971.533,948.054 958.597,947.881 955.389,947.838C928.924,947.484 918.72,969.271 910.515,986.794C902.661,1003.57 897.416,1014.77 906.848,1027.03C915.059,1037.7 932.728,1046.99 944.313,1045.68C958.217,1044.09 951.237,1028.59 965.038,1011C982.023,989.346 1009.37,991.443 1005.69,976.983Z" style="fill:white;fill-rule:nonzero;"/>
        </g>
        <g transform="matrix(4.16667,0,0,4.16667,0,0)">
            <path d="M913.241,1276.99C925.107,1278.42 894.534,1204.99 918.393,1130.81C926.636,1105.18 941.921,1077.76 926.28,1064.8C921.022,1060.44 913.406,1058.67 908.034,1058.81C895.548,1059.14 887.816,1070.04 882.51,1128.82C876.326,1197.35 882.931,1225.79 896.619,1253.27C901.263,1262.6 908.127,1276.38 913.241,1276.99Z" style="fill:white;fill-rule:nonzero;"/>
        </g>
        <g transform="matrix(4.16667,0,0,4.16667,0,0)">
            <path d="M718.472,1462.6C718.597,1452.45 719.879,1437.87 725.582,1421.69C747.26,1360.17 812.129,1334.1 852.484,1317.88C876.222,1308.34 959.56,1276.28 1060.7,1303.58C1092.02,1312.03 1283.75,1477.33 1356.52,1546.13C1416.87,1603.18 1471.42,1666.48 1532.8,1722.37C1426.83,1794.83 1335.11,1849.62 1268.03,1887.58C994.191,2042.59 913.828,2041.28 858.583,2020.11C810.943,2001.85 779.642,1967.94 761.613,1944.23C718.197,1949.26 675.859,1930.27 652.386,1895.07C621.805,1849.2 638.736,1799.04 640.72,1793.48C636.503,1792.02 586.512,1773.82 572.875,1722.45C561.979,1681.41 578.84,1636.35 615.465,1610.06C604.349,1589.12 603.864,1572.21 604.678,1562.56C608.488,1517.4 653.894,1476.22 718.472,1462.6Z" style="fill:rgb(3,4,4);fill-rule:nonzero;"/>
        </g>
        <g transform="matrix(4.16667,0,0,4.16667,0,0)">
            <path d="M1445.72,1683.57C1447.62,1680.89 1439.57,1674.73 1421.89,1659.27C1377.93,1620.82 1316.5,1561.62 1239.83,1470.56C1224.84,1454.28 1205.99,1447.06 1195.4,1451.91C1183.58,1457.33 1184.5,1476.69 1184.94,1485.66C1185.01,1487.15 1186.38,1509.97 1200.79,1530.29C1241.55,1587.75 1436.81,1696.15 1445.72,1683.57Z" style="fill:white;fill-rule:nonzero;"/>
        </g>
        <g transform="matrix(4.16667,0,0,4.16667,0,0)">
            <path d="M1460.05,1705.45C1460.88,1700.38 1436.38,1696.96 1395.38,1682.67C1281.1,1642.8 1268.77,1598.57 1178.02,1581.35C1140.29,1574.2 1110.06,1575.4 1087.06,1576.32C1059.51,1577.41 998.322,1579.85 994.411,1595.41C989.957,1613.13 1061.53,1640.66 1087.61,1650.21C1118.88,1661.67 1157.51,1677.34 1210.14,1689.88C1224.95,1693.41 1248.81,1698.44 1278.68,1702.73C1362.2,1714.72 1458.44,1715.38 1460.05,1705.45Z" style="fill:white;fill-rule:nonzero;"/>
        </g>
        <g transform="matrix(4.16667,0,0,4.16667,0,0)">
            <path d="M1461.33,1721.24C1463.78,1730.82 1345.92,1762.47 1248.54,1778.93C1246.2,1779.33 1211.58,1785.13 1164.62,1788.13C1094.62,1792.61 1066.91,1786.44 1053.67,1782.8C1040.61,1779.22 1024.83,1774.77 1007.58,1764.11C973.664,1743.17 941.973,1703.18 954.572,1685.1C965.714,1669.11 1008.48,1674.59 1053.87,1680.4C1101.12,1686.45 1134.99,1697.1 1136.27,1697.5C1136.4,1697.54 1136.16,1697.47 1136.29,1697.51C1206.51,1719.67 1288.25,1723.56 1288.25,1723.56C1396.72,1728.73 1459.56,1714.27 1461.33,1721.24Z" style="fill:white;fill-rule:nonzero;"/>
        </g>
        <g transform="matrix(4.16667,0,0,4.16667,0,0)">
            <path d="M898.973,1961.67C959.082,1978.62 1024.42,1966.33 1197.79,1883.24C1262.86,1852.05 1446.11,1764.23 1436.92,1748.07C1429.89,1735.71 1323.25,1788 1116.98,1832.41C935.945,1871.39 823.257,1873.06 819.186,1905.79C816.479,1927.58 863.295,1951.6 898.973,1961.67Z" style="fill:white;fill-rule:nonzero;"/>
        </g>
        <g transform="matrix(4.16667,0,0,4.16667,0,0)">
            <path d="M1187.2,1544.92C1192.28,1540.72 1159.96,1515.77 1138.13,1457.57C1125.91,1424.98 1129.87,1416.36 1117.38,1402.41C1085.18,1366.46 1002.48,1360.76 990.062,1380.44C967.097,1416.83 1174.77,1555.18 1187.2,1544.92Z" style="fill:white;fill-rule:nonzero;"/>
        </g>
        <g transform="matrix(4.16667,0,0,4.16667,0,0)">
            <path d="M1141.99,1547.01C1138.29,1556.6 1089.29,1551.92 1055.63,1545.72C954.308,1527.08 839.204,1466.63 849.059,1425.69C854.274,1404.02 894.78,1386.58 928.236,1389.63C978.808,1394.24 983.63,1442.96 1070.22,1500.06C1112.16,1527.72 1145.16,1538.79 1141.99,1547.01Z" style="fill:white;fill-rule:nonzero;"/>
        </g>
        <g transform="matrix(4.16667,0,0,4.16667,0,0)">
            <path d="M1040.34,1560.78C1040.03,1569.03 989.092,1577.14 941.983,1576.09C874.598,1574.59 765.383,1553.24 755.773,1505.61C750.601,1479.95 774.63,1448.23 799.285,1444.92C816.074,1442.66 824.533,1454.74 862.868,1480.4C884.255,1494.72 927.135,1523.43 980.893,1541.71C1017.99,1554.32 1040.56,1555.27 1040.34,1560.78Z" style="fill:white;fill-rule:nonzero;"/>
        </g>
        <g transform="matrix(4.16667,0,0,4.16667,0,0)">
            <path d="M1019.55,1646.39C1020.22,1641.68 999.469,1640.07 909.593,1607.52C859.872,1589.52 835.01,1580.52 812.378,1570.48C748.048,1541.93 735.759,1527.05 713.548,1531.93C682.981,1538.64 654.571,1578.15 663.984,1604.89C690.343,1679.75 1016.93,1664.9 1019.55,1646.39Z" style="fill:white;fill-rule:nonzero;"/>
        </g>
        <g transform="matrix(4.16667,0,0,4.16667,0,0)">
            <path d="M1063.57,1822.93C1064.84,1807.58 973.06,1791.02 968.976,1790.3C874.082,1773.5 734.393,1773.31 721.067,1812.63C714.513,1831.97 739.238,1858.79 764.79,1870.93C804.56,1889.82 835.501,1867.97 956.841,1845.97C1027.86,1833.09 1062.79,1832.31 1063.57,1822.93Z" style="fill:white;fill-rule:nonzero;"/>
        </g>
        <g transform="matrix(4.16667,0,0,4.16667,0,0)">
            <path d="M970.72,1758.96C975.012,1749.61 926.742,1722.87 887.908,1706.09C812.922,1673.68 679.862,1638.1 648.463,1676.4C631.699,1696.85 645.061,1736.96 671.144,1754.3C684.024,1762.87 696.243,1763.38 758.897,1761.63C869.72,1758.54 871.51,1755.83 906.697,1757.62C948.167,1759.73 968.121,1764.62 970.72,1758.96Z" style="fill:white;fill-rule:nonzero;"/>
        </g>
        <g transform="matrix(4.16667,0,0,4.16667,0,0)">
            <path d="M1385.63,1005.31C1385.63,1017.75 1395.71,1027.83 1408.15,1027.83C1420.59,1027.83 1430.67,1017.75 1430.67,1005.31C1430.67,992.866 1420.59,982.782 1408.15,982.782C1395.71,982.782 1385.63,992.866 1385.63,1005.31Z" style="fill:white;fill-rule:nonzero;"/>
        </g>
        <g transform="matrix(4.16667,0,0,4.16667,0,0)">
            <path d="M1294.69,987.166C1294.69,997.184 1302.81,1005.31 1312.83,1005.31C1322.85,1005.31 1330.96,997.184 1330.96,987.166C1330.96,977.148 1322.85,969.027 1312.83,969.027C1302.81,969.027 1294.69,977.148 1294.69,987.166Z" style="fill:white;fill-rule:nonzero;"/>
        </g>
        <g transform="matrix(4.16667,0,0,4.16667,0,0)">
            <path d="M1207.06,656.113C1207.06,667.251 1216.09,676.28 1227.23,676.28C1238.36,676.28 1247.39,667.251 1247.39,656.113C1247.39,644.976 1238.36,635.947 1227.23,635.947C1216.09,635.947 1207.06,644.976 1207.06,656.113Z" style="fill:white;fill-rule:nonzero;"/>
        </g>
        <g transform="matrix(4.16667,0,0,4.16667,0,0)">
            <path d="M1151.72,588.168C1151.72,596.866 1158.77,603.917 1167.47,603.917C1176.16,603.917 1183.22,596.866 1183.22,588.168C1183.22,579.471 1176.16,572.419 1167.47,572.419C1158.77,572.419 1151.72,579.471 1151.72,588.168Z" style="fill:white;fill-rule:nonzero;"/>
        </g>
        <g transform="matrix(4.16667,0,0,4.16667,0,0)">
            <path d="M1189.31,619.906C1189.31,624.808 1193.29,628.78 1198.19,628.78C1203.09,628.78 1207.06,624.808 1207.06,619.906C1207.06,615.007 1203.09,611.033 1198.19,611.033C1193.29,611.033 1189.31,615.007 1189.31,619.906Z" style="fill:white;fill-rule:nonzero;"/>
        </g>
        <g transform="matrix(4.16667,0,0,4.16667,0,0)">
            <path d="M1307.36,2002.32C1315.41,2010.14 1348.43,1989.17 1365.52,1976.23C1412.25,1940.85 1429.26,1897.84 1448.46,1859.94C1504.34,1749.63 1570.28,1699.41 1564.18,1693.8C1557.38,1687.54 1480.58,1754.86 1414.22,1832.72C1361.98,1894.01 1293.31,1988.69 1307.36,2002.32Z" style="fill:rgb(3,4,4);fill-rule:nonzero;"/>
        </g>
        <g transform="matrix(4.16667,0,0,4.16667,0,0)">
            <path d="M1431.25,1840.07C1446.22,1854.31 1498.28,1823.87 1547.54,1772.09C1596.79,1720.31 1624.59,1666.8 1609.63,1652.56C1594.67,1638.33 1542.61,1668.77 1493.35,1720.54C1444.09,1772.32 1416.29,1825.84 1431.25,1840.07Z" style="fill:rgb(3,4,4);fill-rule:nonzero;"/>
        </g>
        <g transform="matrix(4.16667,0,0,4.16667,0,0)">
            <path d="M1637,1632.38L1634.37,1627.99C1673.16,1597.82 1700.1,1564.46 1714.42,1528.83C1715.47,1526.23 1716.56,1523.34 1717.78,1520.11C1721.65,1509.89 1726.94,1495.89 1736.2,1476.89C1747.31,1454.08 1756.88,1434.42 1774.37,1413.87C1789.42,1396.16 1807.43,1381.37 1827.9,1369.91L1829.85,1374.73C1809.95,1385.88 1792.44,1400.25 1777.82,1417.45C1760.82,1437.43 1751.41,1456.76 1740.51,1479.15C1731.34,1497.96 1726.11,1511.8 1722.29,1521.9C1721.05,1525.17 1719.95,1528.1 1718.88,1530.75C1704.15,1567.38 1676.6,1601.57 1637,1632.38Z" style="fill:rgb(3,4,4);fill-rule:nonzero;"/>
        </g>
        <g transform="matrix(4.16667,0,0,4.16667,0,0)">
            <path d="M1832.36,1377.75C1824.88,1382.17 1817.75,1383.27 1816.41,1380.2C1815.08,1377.12 1820.06,1371.04 1827.53,1366.61C1835,1362.18 1842.14,1361.09 1843.47,1364.16C1844.81,1367.23 1839.83,1373.32 1832.36,1377.75Z" style="fill:rgb(3,4,4);fill-rule:nonzero;"/>
        </g>
        <g transform="matrix(4.16667,0,0,4.16667,0,0)">
            <path d="M1634.3,1643.33L1633.64,1638.26C1681.22,1626 1719.2,1606.1 1746.51,1579.11C1748.51,1577.13 1750.66,1574.92 1753.06,1572.44C1760.67,1564.6 1771.09,1553.86 1787.14,1540.11C1806.41,1523.59 1823.01,1509.36 1847.22,1497.45C1868.08,1487.19 1890.48,1480.78 1913.82,1478.4L1913.69,1483.6C1891,1485.92 1869.22,1492.15 1848.97,1502.11C1825.42,1513.69 1809.1,1527.68 1790.2,1543.89C1774.31,1557.51 1764.01,1568.12 1756.49,1575.88C1754.05,1578.39 1751.87,1580.63 1749.84,1582.64C1721.76,1610.39 1682.89,1630.81 1634.3,1643.33Z" style="fill:rgb(3,4,4);fill-rule:nonzero;"/>
        </g>
        <g transform="matrix(4.16667,0,0,4.16667,0,0)">
            <path d="M1914.79,1487.37C1906.18,1488.46 1899.19,1486.63 1899.19,1483.28C1899.19,1479.92 1906.17,1476.32 1914.79,1475.23C1923.41,1474.14 1930.39,1475.97 1930.4,1479.32C1930.4,1482.67 1923.41,1486.27 1914.79,1487.37Z" style="fill:rgb(3,4,4);fill-rule:nonzero;"/>
        </g>
        <g transform="matrix(4.16667,0,0,4.16667,0,0)">
            <path d="M1598.41,1640.79C1591.62,1655.1 1608.46,1669.93 1610.51,1671.69C1612.27,1673.19 1630.15,1688.08 1643.5,1678.87C1656.75,1669.72 1663.9,1637.99 1649.76,1626.02C1635.59,1614.04 1605.29,1626.28 1598.41,1640.79Z" style="fill:rgb(3,4,4);fill-rule:nonzero;"/>
        </g>
    </g>
</svg>
